<svg width="873" height="492" viewBox="0 0 873 492" fill="none" xmlns="http://www.w3.org/2000/svg">
<g clip-path="url(#clip0_36_17)">
<path d="M872.96 0H0V491.04H872.96V0Z" fill="white"/>
<path d="M1052.33 -118.82C1052.33 -118.82 1051.39 -68.2961 790.785 8.74168C530.182 85.7794 719.963 71.0989 529.245 136.303C338.527 201.508 494.119 207.953 267.714 263.861C41.3087 319.768 274.318 320.72 6.17381 391.422C-261.97 462.124 -39.9644 445.078 -255.366 518.984L-354.234 567.205L-652.326 -43.9754L754.233 -730L1052.33 -118.82Z" fill="white"/>
<path d="M1209.99 487.365C1209.99 487.365 1068.33 543.88 920.373 459.116C772.413 374.352 781.397 488.262 630.757 430.867C480.118 373.472 491.247 465.488 341.152 402.62C191.056 339.752 202.166 431.765 51.536 374.371C-99.0937 316.977 -54.9713 436.324 -238.08 346.122L-347.56 335.444L-416 1037.11L1141.55 1189.03L1209.99 487.365Z" fill="black"/>
</g>
<defs>
<clipPath id="clip0_36_17">
<rect width="872.96" height="491.04" fill="white"/>
</clipPath>
</defs>
</svg>
