<svg width="30" height="30" viewBox="0 0 30 30" fill="none" xmlns="http://www.w3.org/2000/svg">
<g clip-path="url(#clip0_51_2)">
<path fill-rule="evenodd" clip-rule="evenodd" d="M25.8713 1.37585C26.6313 0.61597 27.8634 0.616021 28.6233 1.37596V1.37596C29.3833 2.13594 29.3833 3.36812 28.6233 4.1281L16.4119 16.3395C15.6308 17.1206 14.3643 17.1205 13.5833 16.3393L1.37527 4.12808C0.615469 3.36808 0.615548 2.13606 1.37545 1.37616V1.37616C2.13546 0.616146 3.36771 0.616195 4.12766 1.37627L13.5834 10.8335C14.3644 11.6147 15.6307 11.6148 16.4119 10.8338L25.8713 1.37585Z" fill="black"/>
<path fill-rule="evenodd" clip-rule="evenodd" d="M25.8714 13.6258C26.6314 12.866 27.8635 12.866 28.6234 13.626V13.626C29.3834 14.3859 29.3834 15.6181 28.6234 16.3781L22.4986 22.503L16.4121 28.5895C15.6309 29.3706 14.3645 29.3705 13.5834 28.5893L1.37539 16.3781C0.615591 15.6181 0.615671 14.3861 1.37557 13.6262V13.6262C2.13559 12.8661 3.36783 12.8662 4.12778 13.6263L13.5836 23.0835C14.3645 23.8646 15.6309 23.8647 16.412 23.0837L25.8714 13.6258Z" fill="black"/>
</g>
<defs>
<clipPath id="clip0_51_2">
<rect width="30" height="30" fill="white" transform="matrix(0 1 -1 0 30 0)"/>
</clipPath>
</defs>
</svg>
