<svg width="23" height="22" viewBox="0 0 23 22" fill="none" xmlns="http://www.w3.org/2000/svg">
<path d="M11.5092 7.92666e-07C9.85464 -0.000785518 8.24622 0.583454 6.93402 1.66187C5.62182 2.74029 4.67937 4.25245 4.25323 5.96323C3.82709 7.674 3.94113 9.48751 4.57762 11.1218C5.21411 12.756 6.33739 14.1194 7.77278 15C7.76677 14.8747 7.75475 14.7509 7.75475 14.624C7.75464 13.2154 8.10068 11.8316 8.75816 10.6114C9.41564 9.39113 10.3614 8.37736 11.5007 7.67177C12.6399 6.96618 13.9325 6.59359 15.2487 6.59136C16.565 6.58914 17.8587 6.95736 19 7.6591C18.9123 5.59612 18.0848 3.64873 16.6896 2.22193C15.2945 0.795129 13.439 0.000347421 11.5092 7.92666e-07Z" fill="#1583FF"/>
<path d="M15.3333 6C14.3702 5.99956 13.4164 6.21847 12.5265 6.64424C11.6366 7.07002 10.8281 7.69429 10.147 8.4814C9.46598 9.2685 8.92583 10.203 8.55743 11.2315C8.18903 12.26 7.99962 13.3623 8 14.4754C8 14.611 8.01173 14.7415 8.0176 14.8738C9.13222 15.6139 10.3957 16.0023 11.6812 16C12.9667 15.9976 14.2291 15.6046 15.3417 14.8604C16.4543 14.1161 17.3779 13.0468 18.02 11.7597C18.6622 10.4726 19.0001 9.01299 19 7.52727C19 7.39336 18.9883 7.26284 18.9824 7.13062C17.873 6.39004 16.6145 6.0001 15.3333 6Z" fill="#00CF2D"/>
<path d="M15 14C15.003 18.4192 11.6445 22 7.5 22C3.3555 22 -0.00299799 18.4192 2.00826e-06 14C-0.00299799 9.584 3.3555 6 7.5 6C11.6445 6 15.003 9.584 15 14Z" fill="#9815FF"/>
<path d="M19.2276 7C19.2336 7.12535 19.2456 7.24909 19.2456 7.37604C19.2459 8.78482 18.8999 10.1689 18.2424 11.3894C17.5849 12.6098 16.6391 13.6237 15.4997 14.3294C14.3604 15.035 13.0677 15.4075 11.7513 15.4096C10.4349 15.4116 9.14122 15.043 8 14.3409C8.0881 16.4039 8.91588 18.3511 10.3112 19.7776C11.7065 21.2041 13.5619 22.0001 15.4916 22C17.1459 22.0008 18.7542 21.4165 20.0663 20.3381C21.3783 19.2597 22.3207 17.7475 22.7468 16.0368C23.1729 14.326 23.0589 12.5125 22.4224 10.8782C21.786 9.24398 20.6628 7.88057 19.2276 7Z" fill="#F9D100"/>
<path d="M8 15.0015C8.05414 16.2264 8.40272 17.4176 9.01376 18.4657C9.62481 19.5138 10.4787 20.3852 11.4972 21C12.5171 20.3871 13.3725 19.5167 13.9846 18.4689C14.5968 17.4211 14.946 16.2297 15 15.0044C13.9353 15.6425 12.7283 15.9776 11.5 15.9761C10.2713 15.9764 9.0642 15.6413 8 15.0015Z" fill="#EF0000"/>
<path d="M11.4972 7C10.4334 7.75415 9.54998 8.83968 8.93602 10.1472C8.32205 11.4548 7.99921 12.9382 8 14.448C8 14.584 8.0112 14.7165 8.0168 14.8508C9.07584 15.6031 10.2772 15.9994 11.5003 16C12.7234 16.0006 13.9251 15.6055 14.9846 14.8542C14.9888 14.7183 15 14.584 15 14.448C15.0006 12.9372 14.6771 11.4529 14.0621 10.1449C13.4471 8.83696 12.5624 7.75329 11.4972 7Z" fill="white"/>
<path d="M8.00116 6C6.54441 6 5.18372 6.42472 4.00872 7.15208C3.94003 8.73011 4.27824 10.2979 4.98608 11.6826C5.69392 13.0674 6.74392 14.2153 8.02037 15C8.01397 14.8676 8.00116 14.7352 8.00116 14.5994C7.99997 13.0908 8.36899 11.6086 9.07104 10.302C9.77308 8.99546 10.7833 7.91076 12 7.15724C10.7854 6.39945 9.40579 6.00021 8.00116 6Z" fill="#5100CC"/>
</svg>
