<svg width="120" height="120" viewBox="0 0 120 120" fill="none" xmlns="http://www.w3.org/2000/svg">
<g clip-path="url(#clip0_63_196)">
<path d="M114.545 43.6364H106.295C105.718 42.0047 105.053 40.4025 104.304 38.8378L110.14 33.0015C112.27 30.8713 112.27 27.4178 110.14 25.2876L94.7127 9.85964C93.6898 8.83673 92.3022 8.26182 90.8556 8.26182C89.4091 8.26182 88.0218 8.83636 86.9989 9.85964L81.1622 15.696C79.5971 14.9465 77.9956 14.2822 76.3636 13.7047V5.45455C76.3636 2.44218 73.9215 0 70.9091 0H49.0909C46.0785 0 43.6364 2.44218 43.6364 5.45455V13.7047C42.0044 14.2822 40.4025 14.9469 38.8382 15.696L33.0015 9.85964C30.8716 7.72945 27.4178 7.72945 25.2876 9.85964L9.85964 25.2876C7.72945 27.4178 7.72945 30.8713 9.85964 33.0015L15.696 38.8382C14.9469 40.4029 14.2825 42.0044 13.7051 43.6364H5.45455C2.44218 43.6364 0 46.0785 0 49.0909V70.9091C0 73.9215 2.44218 76.3636 5.45455 76.3636H13.7051C14.2825 77.9953 14.9473 79.5975 15.696 81.1618L9.85964 86.9985C8.83673 88.0215 8.26182 89.4087 8.26182 90.8553C8.26182 92.3022 8.83636 93.6895 9.85964 94.7124L25.288 110.14C27.4182 112.27 30.8716 112.27 33.0015 110.14L38.8385 104.304C40.4036 105.053 42.0047 105.718 43.6364 106.295V114.545C43.6364 117.558 46.0785 120 49.0909 120H70.9091C73.9215 120 76.3636 117.558 76.3636 114.545V106.295C77.9956 105.717 79.5975 105.053 81.1622 104.304L86.9993 110.14C89.1291 112.27 92.5825 112.27 94.7127 110.14L110.14 94.712C112.271 92.5818 112.271 89.1284 110.14 86.9982L104.304 81.1618C105.053 79.5971 105.718 77.9953 106.296 76.3633H114.545C117.558 76.3633 120 73.9211 120 70.9087V49.0905C120 46.0785 117.558 43.6364 114.545 43.6364ZM109.091 65.4545H102.261C99.772 65.4545 97.5989 67.1396 96.9789 69.5506C96.0935 72.9938 94.7196 76.3044 92.8964 79.3898C91.6302 81.5327 91.9753 84.2615 93.7356 86.0215L98.5698 90.8556L90.856 98.5695L86.0215 93.7356C84.2618 91.976 81.5335 91.6305 79.3909 92.8964C76.3055 94.7189 72.9942 96.0927 69.5498 96.9796C67.1393 97.5996 65.4545 99.7727 65.4545 102.262V109.091H54.5455V102.262C54.5455 99.7731 52.8607 97.6 50.4505 96.9796C47.0065 96.0931 43.696 94.7193 40.6098 92.8964C38.4665 91.6302 35.7389 91.9756 33.9793 93.7356L29.1447 98.5695L21.4302 90.8553L26.2644 86.0211C28.0247 84.2611 28.3698 81.5327 27.1036 79.3898C25.2811 76.3051 23.9076 72.9942 23.0207 69.5495C22.4007 67.1393 20.2273 65.4545 17.7385 65.4545H10.9091V54.5455H17.7385C20.2273 54.5455 22.4004 52.8607 23.0207 50.4505C23.9073 47.0055 25.2811 43.6945 27.1036 40.6098C28.3698 38.4669 28.0247 35.7385 26.2644 33.9785L21.4305 29.1444L29.1447 21.4305L33.9789 26.2644C35.7389 28.0244 38.4676 28.3698 40.6102 27.1036C43.6953 25.2807 47.0065 23.9073 50.4509 23.0204C52.8607 22.4004 54.5455 20.2273 54.5455 17.7382V10.9091H65.4545V17.7382C65.4545 20.2269 67.1393 22.4 69.5495 23.0204C72.9945 23.9073 76.3055 25.2807 79.3905 27.1036C81.5338 28.3695 84.2618 28.0244 86.0218 26.2644L90.856 21.4305L98.5698 29.1444L93.7356 33.9785C91.9753 35.7385 91.6302 38.4673 92.8964 40.6102C94.7196 43.6953 96.0931 47.0058 96.9789 50.4495C97.5989 52.86 99.7724 54.5451 102.261 54.5451H109.091V65.4545Z" fill="#D0D0D0"/>
<path d="M67.7795 48.1432L55.2726 60.6498L51.8566 57.2342C49.7268 55.104 46.273 55.104 44.1428 57.2342C42.0126 59.3643 42.0126 62.8178 44.1428 64.948L51.4155 72.2207C52.4806 73.2858 53.8766 73.8182 55.2726 73.8182C56.6686 73.8182 58.0646 73.2858 59.1294 72.2203L75.493 55.8567C77.6232 53.7265 77.6232 50.2731 75.493 48.1429C73.3632 46.0127 69.9093 46.0127 67.7795 48.1432Z" fill="#D0D0D0"/>
</g>
<defs>
<clipPath id="clip0_63_196">
<rect width="120" height="120" fill="white"/>
</clipPath>
</defs>
</svg>
