<svg width="873" height="200" viewBox="0 0 873 200" fill="none" xmlns="http://www.w3.org/2000/svg">
<g clip-path="url(#clip0_100_27)">
<path d="M872.96 0H0V200H872.96V0Z" fill="white"/>
<path d="M1727.76 77.996C1727.76 77.996 1303.28 88.9296 861.421 75.3803C419.561 61.831 458.019 99.0139 -4.91576 72.7646C-467.85 46.5153 -433.047 119.912 -871.253 70.1489L-980.418 69.8193L-947.699 -254.417L1760.48 -246.24L1727.76 77.996Z" fill="white"/>
<path d="M1753.44 29.5531C1753.44 29.5531 1612.05 103.132 887.207 26.9388C162.362 -49.2543 680.862 104.852 20.9734 24.3244C-638.915 -56.2036 -411.442 114.393 -845.26 21.71L-954.412 21.3806L-1015 621.548L1692.85 629.72L1753.44 29.5531Z" fill="black"/>
</g>
<defs>
<clipPath id="clip0_100_27">
<rect width="872.96" height="200" fill="white"/>
</clipPath>
</defs>
</svg>
