<svg width="873" height="492" viewBox="0 0 873 492" fill="none" xmlns="http://www.w3.org/2000/svg">
<g clip-path="url(#clip0_30_2)">
<path d="M872.96 0H0V491.04H872.96V0Z" fill="white"/>
<path d="M-290.99 411.04C-290.99 411.04 -199 360.04 0 411.04C199 462.04 135.49 399.04 290.99 411.04C446.49 423.04 426.48 393.04 581.97 411.04C737.46 429.04 574.96 380.04 872.96 411.04C1170.96 442.04 977.95 386.04 1163.95 411.04H1273.95V1091.04H-290.99V411.04Z" fill="white"/>
<path d="M-272 80C-272 80 -244.01 37.5 18.99 80C281.99 122.5 98.5 42.5 294 91C489.5 139.5 387 48.5 620 91C853 133.5 736.01 36 891.5 91C1046.99 146 1027.44 37.5 1182.94 80H1292.94V-625H-272V80Z" fill="black"/>
</g>
<defs>
<clipPath id="clip0_30_2">
<rect width="872.96" height="491.04" fill="white"/>
</clipPath>
</defs>
</svg>
