<svg width="35" height="35" viewBox="0 0 35 35" fill="none" xmlns="http://www.w3.org/2000/svg">
<path fill-rule="evenodd" clip-rule="evenodd" d="M1.03494 7.62093C1.03494 3.98357 3.9836 1.03491 7.62096 1.03491H27.379C31.0163 1.03491 33.965 3.98357 33.965 7.62093V27.379C33.965 31.0163 31.0163 33.965 27.379 33.965H7.62096C3.9836 33.965 1.03494 31.0163 1.03494 27.379V7.62093ZM7.62096 4.32792C5.80228 4.32792 4.32795 5.80225 4.32795 7.62093V27.379C4.32795 29.1977 5.80228 30.672 7.62096 30.672H27.379C29.1978 30.672 30.672 29.1977 30.672 27.379V7.62093C30.672 5.80225 29.1978 4.32792 27.379 4.32792H7.62096ZM17.5 12.5604C14.7719 12.5604 12.5605 14.7719 12.5605 17.5C12.5605 20.2281 14.7719 22.4395 17.5 22.4395C20.2281 22.4395 22.4395 20.2281 22.4395 17.5C22.4395 14.7719 20.2281 12.5604 17.5 12.5604ZM9.26747 17.5C9.26747 12.9533 12.9533 9.26744 17.5 9.26744C22.0467 9.26744 25.7325 12.9533 25.7325 17.5C25.7325 22.0466 22.0467 25.7325 17.5 25.7325C12.9533 25.7325 9.26747 22.0466 9.26747 17.5ZM26.5558 10.9139C27.9197 10.9139 29.0255 9.8082 29.0255 8.44419C29.0255 7.08017 27.9197 5.97443 26.5558 5.97443C25.1918 5.97443 24.086 7.08017 24.086 8.44419C24.086 9.8082 25.1918 10.9139 26.5558 10.9139Z" fill="black"/>
</svg>
