<svg width="35" height="35" viewBox="0 0 35 35" fill="none" xmlns="http://www.w3.org/2000/svg">
<path d="M0 4.41431V30.5857C0 33.056 1.94398 35 4.41431 35H30.5857C31.7948 35 32.9501 34.4215 33.6866 33.6866C34.4753 32.8979 35 31.8991 35 30.5857V4.41431C35 1.94398 33.056 0 30.5857 0H4.41431C3.10095 0 2.10205 0.526354 1.31336 1.31336C0.576803 2.04992 0 3.20521 0 4.41431ZM4.73046 7.88185C4.73046 6.20021 6.09763 4.72878 7.77927 4.72878C9.51305 4.72878 10.9324 6.20021 10.9324 7.88185C10.9324 9.61563 9.51305 10.9828 7.77927 10.9828C6.09763 10.9828 4.73046 9.61563 4.73046 7.88185ZM13.1908 29.4809V13.4531C13.1908 13.0849 13.5591 12.7704 13.8214 12.7704H18.2878C18.9185 12.7704 18.9185 13.5069 18.9185 13.9795C20.1797 12.7183 21.8092 12.4021 23.4908 12.4021C27.5907 12.4021 30.2174 14.3461 30.2174 18.6561V29.4825C30.2174 29.8508 29.9013 30.1653 29.5868 30.1653H24.9623C24.594 30.1653 24.3317 29.797 24.3317 29.4825V19.7072C24.3317 18.0776 23.8591 17.1847 22.0194 17.1847C19.7072 17.1847 19.1287 18.7083 19.1287 20.7582V29.4825C19.1287 29.8508 18.7604 30.1653 18.3921 30.1653H13.8197C13.5574 30.1653 13.1891 29.797 13.1891 29.4825L13.1908 29.4809ZM4.83472 29.4809V13.4531C4.83472 13.0849 5.203 12.7704 5.46533 12.7704H10.0377C10.4581 12.7704 10.7205 13.0327 10.7205 13.4531V29.4809C10.7205 29.8491 10.4043 30.1636 10.0377 30.1636H5.46533C5.14919 30.1636 4.83472 29.7953 4.83472 29.4809Z" fill="white"/>
</svg>
