<svg width="240" height="119" viewBox="0 0 240 119" fill="none" xmlns="http://www.w3.org/2000/svg">
<path d="M120.476 1.5414e-06C117.033 -0.00152751 113.686 1.13457 110.955 3.23165C108.225 5.32873 106.264 8.26925 105.377 11.596C104.49 14.9227 104.727 18.4493 106.052 21.6272C107.376 24.8051 109.714 27.4564 112.701 29.1688C112.688 28.925 112.663 28.6844 112.663 28.4375C112.663 25.6985 113.383 23.0076 114.751 20.6347C116.119 18.2618 118.087 16.2905 120.458 14.9184C122.828 13.5463 125.518 12.8218 128.257 12.8175C130.996 12.8131 133.688 13.5292 136.063 14.8938C135.881 10.8821 134.159 7.09527 131.255 4.32073C128.352 1.5462 124.491 0.00067559 120.476 1.5414e-06Z" fill="#1583FF"/>
<path d="M128.288 12.8093C126.236 12.8085 124.204 13.2121 122.308 13.997C120.412 14.782 118.689 15.9329 117.238 17.384C115.787 18.835 114.636 20.5578 113.851 22.4539C113.066 24.35 112.662 26.3822 112.663 28.4343C112.663 28.6843 112.688 28.9249 112.701 29.1687C115.075 30.5333 117.767 31.2493 120.507 31.245C123.246 31.2407 125.935 30.5161 128.306 29.144C130.676 27.772 132.644 25.8006 134.013 23.4278C135.381 21.0549 136.101 18.364 136.101 15.625C136.101 15.3781 136.076 15.1375 136.063 14.8937C133.699 13.5284 131.018 12.8095 128.288 12.8093Z" fill="#00CF2D"/>
<path d="M40.768 60.76V86.36C40.768 92.12 39.232 96.4507 36.16 99.352C33.088 102.211 28.608 103.64 22.72 103.64C16.832 103.64 12.352 102.211 9.28 99.352C6.208 96.4507 4.672 92.12 4.672 86.36V60.76H13.504V85.976C13.504 89.5173 14.2507 92.1413 15.744 93.848C17.28 95.5547 19.6053 96.408 22.72 96.408C25.8347 96.408 28.1387 95.5547 29.632 93.848C31.1253 92.1413 31.872 89.5173 31.872 85.976V60.76H40.768ZM68.6695 60.76C71.9122 60.76 74.6855 61.3147 76.9895 62.424C79.2935 63.4907 81.0642 65.048 82.3015 67.096C83.5815 69.1013 84.2215 71.5333 84.2215 74.392C84.2215 77.2507 83.5815 79.704 82.3015 81.752C81.0642 83.7573 79.2935 85.3147 76.9895 86.424C74.6855 87.4907 71.9122 88.024 68.6695 88.024H59.7735V103H50.9415V60.76H68.6695ZM67.3255 81.048C69.9708 81.048 71.9548 80.4933 73.2775 79.384C74.6002 78.232 75.2615 76.568 75.2615 74.392C75.2615 72.1733 74.6002 70.5093 73.2775 69.4C71.9548 68.2907 69.9708 67.736 67.3255 67.736H59.7735V81.048H67.3255ZM110.941 60.76C115.719 60.76 119.474 61.912 122.205 64.216C124.935 66.52 126.301 69.6133 126.301 73.496C126.301 77.6347 124.935 80.8133 122.205 83.032C119.474 85.208 115.741 86.296 111.005 86.296L110.109 86.808H101.021V103H92.3165V60.76H110.941ZM109.917 80.088C112.391 80.088 114.226 79.5973 115.421 78.616C116.658 77.592 117.277 76.0347 117.277 73.944C117.277 71.8533 116.658 70.3173 115.421 69.336C114.226 68.312 112.391 67.8 109.917 67.8H101.021V80.088H109.917ZM115.101 81.944L128.797 103H118.877L107.549 84.504L115.101 81.944ZM144.649 60.76V103H135.817V60.76H144.649ZM191.917 60.76V103H181.805L167.021 78.168L163.373 71.256H163.309L163.565 78.552V103H155.629V60.76H165.677L180.461 85.528L184.109 92.504H184.237L183.981 85.208V60.76H191.917ZM236.35 60.76V67.864H222.206V103H213.374V67.864H199.166V60.76H236.35Z" fill="white"/>
<path d="M128.25 28.5653C128.256 37.1966 121.259 44.1903 112.625 44.1903C103.991 44.1903 96.9938 37.1966 97 28.5653C96.9938 19.9403 103.991 12.9403 112.625 12.9403C121.259 12.9403 128.256 19.9403 128.25 28.5653Z" fill="#9815FF"/>
<path d="M136.063 14.8937C136.076 15.1374 136.101 15.3781 136.101 15.6249C136.101 18.3644 135.381 21.0558 134.013 23.4291C132.645 25.8024 130.676 27.7741 128.305 29.1463C125.934 30.5184 123.244 31.2428 120.504 31.2468C117.765 31.2507 115.072 30.534 112.698 29.1687C112.881 33.1803 114.604 36.9668 117.507 39.7408C120.411 42.5147 124.272 44.0626 128.288 44.0624C131.731 44.064 135.078 42.9279 137.808 40.8308C140.539 38.7337 142.5 35.7932 143.387 32.4664C144.274 29.1397 144.036 25.6132 142.712 22.4352C141.387 19.2573 139.05 16.606 136.063 14.8937Z" fill="#F9D100"/>
<path d="M112.701 29.1687C112.821 31.7806 113.595 34.3206 114.953 36.5554C116.31 38.7903 118.207 40.6484 120.469 41.9593C122.735 40.6525 124.635 38.7965 125.995 36.5623C127.355 34.3281 128.131 31.7876 128.251 29.1749C125.885 30.5354 123.204 31.25 120.476 31.2468C117.746 31.2475 115.065 30.5329 112.701 29.1687Z" fill="#EF0000"/>
<path d="M120.469 14.9125C118.095 16.2816 116.123 18.2524 114.752 20.6263C113.382 23.0002 112.661 25.6933 112.663 28.4344C112.663 28.6812 112.688 28.9219 112.701 29.1656C115.065 30.5313 117.746 31.2509 120.476 31.252C123.206 31.2531 125.889 30.5357 128.254 29.1719C128.263 28.925 128.288 28.6812 128.288 28.4344C128.289 25.6915 127.567 22.9968 126.195 20.6221C124.822 18.2475 122.847 16.2801 120.469 14.9125Z" fill="black"/>
<path d="M112.663 12.8093C109.819 12.8093 107.163 13.5812 104.869 14.9031C104.735 17.7709 105.395 20.6201 106.777 23.1367C108.159 25.6533 110.209 27.7395 112.701 29.1656C112.688 28.9249 112.663 28.6843 112.663 28.4374C112.661 25.6959 113.381 23.0021 114.752 20.6276C116.122 18.2531 118.094 16.2819 120.469 14.9125C118.098 13.5353 115.405 12.8097 112.663 12.8093Z" fill="#5100CC"/>
</svg>
