<svg width="100" height="100" viewBox="0 0 100 100" fill="none" xmlns="http://www.w3.org/2000/svg">
<path d="M5 50C5 25.1472 25.1472 5 50 5C74.8531 5 95 25.1472 95 50C95 74.8531 74.8531 95 50 95C25.1472 95 5 74.8531 5 50Z" stroke="#000" stroke-width="10"/>
<path d="M76.292 45.3333H25.292M46.542 31L42.292 45.3333L51 71.6324L59.292 45.3333L55.042 31M26.7991 47.0275L48.686 71.6324C49.8114 72.8978 51.7726 72.8978 52.898 71.6324L74.7849 47.0275C75.6672 46.0357 75.7565 44.5592 75 43.466L67.2214 32.2227C66.691 31.4564 65.8248 31 64.9 31H36.6839C35.7593 31 34.8929 31.4564 34.3627 32.2227L26.5839 43.466C25.8276 44.5592 25.9168 46.0357 26.7991 47.0275Z" stroke="#000" stroke-width="4" stroke-linejoin="bevel"/>
</svg>
