<svg width="120" height="120" viewBox="0 0 120 120" fill="none" xmlns="http://www.w3.org/2000/svg">
<path d="M83.4556 18.3167H62.0635V37.4819H90.7942L83.4556 18.3167Z" fill="#D0D0D0"/>
<path d="M42.3447 41.6145C41.4893 44.0142 39.2173 45.7466 36.5271 45.7466C35.1462 45.7466 33.865 46.4285 33.0972 47.5706C32.6392 48.2544 32.395 49.0535 32.395 49.8787C32.395 49.8945 32.3906 49.9092 32.3904 49.925L57.9314 116.6V41.6145H42.3447Z" fill="#D0D0D0"/>
<path d="M29.8547 54.856C28.8269 55.6138 27.5693 56.0767 26.197 56.0767C22.7791 56.0767 19.9985 53.2966 19.9985 49.8787C19.9985 48.7751 19.573 47.7419 18.7991 46.9692C18.0103 46.1802 16.969 45.7466 15.8665 45.7466C13.1765 45.7466 10.9045 44.0142 10.0491 41.6145H0.00170898L52.4614 113.872L29.8547 54.856Z" fill="#D0D0D0"/>
<path d="M13.9043 18.3086L0 37.4819H10.0491C10.9045 35.082 13.1765 33.3499 15.8665 33.3499C18.1453 33.3499 19.9985 31.4954 19.9985 29.2175C19.9985 25.7998 22.7791 23.0195 26.197 23.0195C27.5674 23.0195 28.8235 23.481 29.8508 24.2371L32.1191 18.3083L13.9043 18.3086Z" fill="#D0D0D0"/>
<path d="M36.5437 18.3086L32.3896 29.1663C32.3899 29.1838 32.395 29.2004 32.395 29.218C32.395 30.0193 32.6523 30.8623 33.1013 31.5322C33.2353 31.7341 33.3989 31.9297 33.5916 32.1216C34.3955 32.9265 35.4094 33.3503 36.5271 33.3503C39.217 33.3503 41.489 35.0828 42.3447 37.4824H57.9314V18.3086H36.5437Z" fill="#D0D0D0"/>
<path d="M113.154 28.0454C112.496 30.7615 110.061 32.7913 107.146 32.7913C103.728 32.7913 100.947 30.0107 100.947 26.593C100.947 25.4673 100.531 24.4624 99.7468 23.6855C98.9316 22.8601 97.9206 22.4404 96.793 22.4404C94.1028 22.4404 91.831 20.708 90.9756 18.3083H87.8774L95.2258 37.4822H120L113.154 28.0454Z" fill="#D0D0D0"/>
<path d="M95.2197 41.6145L84.4197 69.8008L67.5374 113.864L119.987 41.6145H95.2197Z" fill="#D0D0D0"/>
<path d="M62.0635 41.6145V116.6L90.7939 41.6145H62.0635Z" fill="#D0D0D0"/>
<path d="M29.8298 35.8892C29.2825 35.3418 28.76 34.7197 28.312 34.0476C26.9929 32.0815 26.1965 29.6677 26.1965 27.1042C26.1965 33.9729 20.6221 39.5476 13.7532 39.5476C17.1877 39.5476 20.2983 40.9414 22.563 43.2058C24.8027 45.4456 26.1963 48.5564 26.1963 51.9907C26.1963 49.4275 26.9927 47.0134 28.3118 45.0474C30.5515 41.7124 34.3589 39.5474 38.6394 39.5474C35.2053 39.5471 32.0945 38.1533 29.8298 35.8892Z" fill="#D0D0D0"/>
<path d="M110.896 12.4646C108.585 10.1536 107.147 6.94336 107.147 3.39966C107.147 10.4875 101.395 16.2397 94.2817 16.2397C97.8513 16.2397 101.061 17.6777 103.372 20.0144C105.709 22.3262 107.147 25.5615 107.147 29.1052C107.147 25.8696 108.354 22.8911 110.332 20.6306C112.694 17.9348 116.135 16.2397 119.987 16.2397C116.443 16.2397 113.233 14.8015 110.896 12.4646Z" fill="#D0D0D0"/>
</svg>
