<svg width="800" height="800" viewBox="0 0 800 800" fill="none" xmlns="http://www.w3.org/2000/svg">
<path d="M100 400C100 234.315 234.315 100 400 100C565.687 100 700 234.315 700 400C700 565.687 565.687 700 400 700C234.315 700 100 565.687 100 400Z" stroke="#C1C1C1" stroke-width="66.67"/>
<path d="M385 226C387.333 225.333 389.5 224.833 391.5 224.5C393.5 223.833 395.5 223.333 397.5 223C399.833 222.333 402.667 222 406 222C409.667 221.667 413 221.833 416 222.5C419.333 222.833 422.333 223.833 425 225.5C428 226.833 430.167 229 431.5 232C432.833 235.333 433.667 239.333 434 244C434.667 248.333 435 252.833 435 257.5C435 262.167 434.833 266.833 434.5 271.5C434.5 275.833 434.5 279.833 434.5 283.5V539C434.5 542.667 434.5 546.5 434.5 550.5C434.833 554.167 434.833 558 434.5 562C434.167 566 433.167 569.833 431.5 573.5C429.833 576.833 427.333 579.667 424 582C419.333 585.667 413 587.5 405 587.5C397.333 587.833 390.667 587 385 585C379 583 375.333 579.167 374 573.5C373 567.833 372.5 562.167 372.5 556.5C370.167 512.5 369 469.5 369 427.5C369.333 385.167 369.5 341.667 369.5 297C368.833 298.667 366.5 300.167 362.5 301.5C358.833 302.833 354.5 304 349.5 305C344.833 306 340.333 306.833 336 307.5C331.667 308.167 328.833 308.5 327.5 308.5C318.833 309.5 310.833 308.667 303.5 306C296.5 303 292.5 296.333 291.5 286C290.167 275.333 292.5 267 298.5 261C304.833 255 312.833 250.5 322.5 247.5C333.167 243.833 343.5 240.167 353.5 236.5C363.833 232.5 374.333 229 385 226Z" fill="#C1C1C1"/>
<circle cx="487" cy="277" r="25" fill="#C1C1C1"/>
</svg>
