<svg width="800" height="800" viewBox="0 0 800 800" fill="none" xmlns="http://www.w3.org/2000/svg">
<g clip-path="url(#clip0_71_86)">
<mask id="mask0_71_86" style="mask-type:luminance" maskUnits="userSpaceOnUse" x="0" y="0" width="800" height="800">
<path d="M800 0H0V800H800V0Z" fill="white"/>
</mask>
<g mask="url(#mask0_71_86)">
<path fill-rule="evenodd" clip-rule="evenodd" d="M435.85 15.15C431.183 10.3695 425.607 6.57061 419.451 3.97689C413.294 1.38317 406.681 0.0469971 400 0.0469971C393.319 0.0469971 386.706 1.38317 380.549 3.97689C374.393 6.57061 368.817 10.3695 364.15 15.15L332.15 47.95C325.86 54.4009 317.948 59.0363 309.245 61.3681C300.543 63.6999 291.372 63.6419 282.7 61.2L238.65 48.75C232.211 46.9356 225.474 46.429 218.836 47.2601C212.199 48.0913 205.795 50.2434 200.002 53.5894C194.209 56.9354 189.145 61.4077 185.109 66.7423C181.073 72.0769 178.145 78.1659 176.5 84.65L165.2 129C162.988 137.736 158.457 145.712 152.084 152.084C145.712 158.457 137.736 162.988 129 165.2L84.6501 176.5C57.3501 183.45 41.1501 211.5 48.7501 238.65L61.2001 282.7C66.2001 300.4 61.1001 319.35 47.9501 332.2L15.1501 364.15C10.3696 368.817 6.57073 374.393 3.97701 380.549C1.38329 386.706 0.0471191 393.319 0.0471191 400C0.0471191 406.681 1.38329 413.294 3.97701 419.451C6.57073 425.607 10.3696 431.183 15.1501 435.85L47.9501 467.85C61.1001 480.65 66.1501 499.6 61.2001 517.3L48.7501 561.35C46.9357 567.789 46.4291 574.526 47.2602 581.164C48.0914 587.801 50.2435 594.206 53.5895 599.998C56.9355 605.791 61.4078 610.855 66.7424 614.891C72.077 618.928 78.166 621.855 84.6501 623.5L129 634.8C137.736 637.012 145.712 641.543 152.084 647.916C158.457 654.288 162.988 662.264 165.2 671L176.5 715.35C183.45 742.65 211.5 758.85 238.65 751.25L282.7 738.8C300.4 733.8 319.35 738.9 332.2 752.05L364.15 784.85C368.817 789.631 374.393 793.429 380.549 796.023C386.706 798.617 393.319 799.953 400 799.953C406.681 799.953 413.294 798.617 419.451 796.023C425.607 793.429 431.183 789.631 435.85 784.85L467.85 752.05C480.65 738.9 499.6 733.85 517.3 738.8L561.35 751.25C567.789 753.072 574.528 753.584 581.168 752.756C587.808 751.928 594.215 749.776 600.009 746.429C605.803 743.082 610.868 738.607 614.903 733.269C618.937 727.931 621.861 721.838 623.5 715.35L634.8 671C637.012 662.264 641.543 654.288 647.916 647.916C654.288 641.543 662.264 637.012 671 634.8L715.35 623.5C742.65 616.55 758.85 588.5 751.25 561.35L738.8 517.3C733.8 499.6 738.9 480.65 752.05 467.8L784.85 435.85C789.631 431.183 793.429 425.607 796.023 419.451C798.617 413.294 799.953 406.681 799.953 400C799.953 393.319 798.617 386.706 796.023 380.549C793.429 374.393 789.631 368.817 784.85 364.15L752.05 332.15C745.599 325.86 740.964 317.948 738.632 309.245C736.3 300.543 736.358 291.372 738.8 282.7L751.25 238.65C753.064 232.211 753.571 225.474 752.74 218.836C751.909 212.199 749.757 205.795 746.411 200.002C743.065 194.209 738.592 189.145 733.258 185.109C727.923 181.073 721.834 178.145 715.35 176.5L671 165.2C662.269 162.979 654.298 158.444 647.927 152.073C641.556 145.702 637.022 137.731 634.8 129L623.5 84.65C616.55 57.35 588.5 41.15 561.35 48.75L517.3 61.2C499.6 66.2 480.65 61.1 467.8 47.95L435.9 15.15H435.85ZM350 200H450V600H350V300H300V250L350 200Z" fill="#C1C1C1"/>
</g>
</g>
<defs>
<clipPath id="clip0_71_86">
<rect width="800" height="800" fill="white"/>
</clipPath>
</defs>
</svg>
