<svg width="100" height="100" viewBox="0 0 100 100" fill="none" xmlns="http://www.w3.org/2000/svg">
<path d="M5 50C5 25.1472 25.1472 5 50 5C74.853 5 95 25.1472 95 50C95 74.853 74.853 95 50 95C25.1472 95 5 74.853 5 50Z" stroke="#C1C1C1" stroke-width="10"/>
<path d="M66.6667 31.25C67.2192 31.25 67.7491 31.0305 68.1398 30.6398C68.5305 30.2491 68.75 29.7192 68.75 29.1666C68.75 28.6141 68.5305 28.0842 68.1398 27.6935C67.7491 27.3028 67.2192 27.0833 66.6667 27.0833H33.3333C32.7808 27.0833 32.2509 27.3028 31.8602 27.6935C31.4695 28.0842 31.25 28.6141 31.25 29.1666C31.25 29.7192 31.4695 30.2491 31.8602 30.6398C32.2509 31.0305 32.7808 31.25 33.3333 31.25H35.5187C35.8229 35.075 37.0667 43.2291 42.1729 47.9166C36.7875 53.1479 35.6917 64.0291 35.4729 68.75H33.3333C32.7808 68.75 32.2509 68.9695 31.8602 69.3602C31.4695 69.7509 31.25 70.2808 31.25 70.8333C31.25 71.3858 31.4695 71.9158 31.8602 72.3065C32.2509 72.6972 32.7808 72.9166 33.3333 72.9166H66.6667C67.2192 72.9166 67.7491 72.6972 68.1398 72.3065C68.5305 71.9158 68.75 71.3858 68.75 70.8333C68.75 70.2808 68.5305 69.7509 68.1398 69.3602C67.7491 68.9695 67.2192 68.75 66.6667 68.75H64.5271C64.3083 64.0333 63.2125 53.1521 57.8271 47.9166C62.9333 43.225 64.1771 35.0708 64.4812 31.25H66.6667ZM53.2917 46.0958C52.9607 46.2796 52.6861 46.5501 52.4973 46.8783C52.3085 47.2065 52.2127 47.5799 52.2202 47.9584C52.2277 48.3369 52.3382 48.7062 52.5398 49.0266C52.7415 49.3471 53.0266 49.6065 53.3646 49.7771C58.4417 52.3354 60.0312 62.925 60.3542 68.75H39.6458C39.9604 62.9166 41.5583 52.3354 46.6354 49.7771C46.9734 49.6065 47.2585 49.3471 47.4602 49.0266C47.6618 48.7062 47.7723 48.3369 47.7798 47.9584C47.7873 47.5799 47.6915 47.2065 47.5027 46.8783C47.3139 46.5501 47.0393 46.2796 46.7083 46.0958C41.4187 43.1604 40.0562 35.0916 39.7042 31.25H60.2958C59.9437 35.0916 58.5812 43.1604 53.2917 46.0958ZM50 52.0833C50 52.0833 56.25 57.0833 56.25 59.5833V66.6666H43.75V59.5833C43.75 57.0833 50 52.0833 50 52.0833Z" fill="#C1C1C1"/>
</svg>
