<svg width="180" height="180" viewBox="0 0 180 180" fill="none" xmlns="http://www.w3.org/2000/svg">
<path d="M89.9999 174.906C43.3018 174.906 5.09424 136.698 5.09424 90C5.09424 43.3019 43.3018 5.09436 89.9999 5.09436C136.698 5.09436 174.906 43.3019 174.906 90C174.906 136.698 136.698 174.906 89.9999 174.906ZM89.9999 22.0755C52.6414 22.0755 22.0754 52.6415 22.0754 90C22.0754 127.359 52.6414 157.925 89.9999 157.925C127.358 157.925 157.924 127.359 157.924 90C157.924 52.6415 127.358 22.0755 89.9999 22.0755Z" fill="#C1C1C1" stroke="#C1C1C1" stroke-width="0.00169811"/>
<path d="M78.1132 101.887C71.3207 95.0944 54.3396 53.4906 54.3396 53.4906C54.3396 53.4906 95.9434 70.4717 102.736 77.2642C109.528 84.0566 109.528 94.2453 102.736 101.038C95.0943 108.679 84.9056 108.679 78.1132 101.887Z" fill="#C1C1C1" stroke="#C1C1C1" stroke-width="0.00169811"/>
</svg>
